<svg width="504" height="232" viewBox="0 0 504 232" fill="none" xmlns="http://www.w3.org/2000/svg">
<path d="M431.084 0.730442C454.256 0.730442 472.1 14.296 483.887 26.9607C497.251 41.3242 503.624 58.7338 503.555 78.5116C503.461 104.33 503.65 130.157 503.521 155.975C503.436 173.651 498.501 189.739 487.159 203.588C472.759 221.152 454.23 231.045 431.649 231.199C376.91 231.568 213.686 231.423 211.305 231.423C216.479 220.894 216.188 207.329 211.288 195.9C223.58 195.9 399.054 196.106 427.023 196.097C452.534 196.088 469.795 180.369 469.967 154.774C470.129 129.599 470.138 104.424 469.958 79.2495C469.787 54.0746 451.96 36.6479 426.698 36.605C341.651 36.442 256.595 36.6307 171.557 35.9529C139.647 35.6955 107.746 35.4552 75.8361 35.3179C56.6902 35.2321 42.9583 44.8765 35.8225 62.7065C34.4861 66.0529 34.2891 69.4421 34.2634 72.8142C34.0321 102.073 33.3982 131.332 34.4861 160.583C35.1029 177.057 52.15 196.303 71.8099 196.286C92.6776 196.26 137.283 196.294 140.975 196.294C135.424 206.814 134.404 221.186 140.949 231.414C132.777 231.414 100.207 231.551 71.7242 231.551C37.0732 231.551 10.0462 206.574 2.29367 172.836C0.974444 167.087 0.194908 161.51 0.203474 155.701C0.229174 127.729 -0.250548 99.748 0.366231 71.7846C0.863081 49.2611 11.0742 31.1479 28.4982 17.1104C43.2838 5.19223 60.2367 0.207038 79.1084 0.756182C91.7181 1.12514 401.744 0.730442 431.084 0.730442Z" fill="#01000A"/>
<path d="M416.752 89.3229C407.595 89.34 399.003 88.9882 390.462 89.4516C376.156 90.2238 366.253 100.803 365.345 115.596C364.626 127.437 374.683 139.518 387.447 141.749C394.737 143.027 401.144 140.719 407.706 135.494C403.877 134.679 401.024 134.155 398.223 133.46C390.788 131.616 384.98 124.142 384.98 115.064C384.98 106.029 393.769 97.8689 402.027 97.7488C413.591 97.5772 425.164 97.5858 436.729 97.7488C445.587 97.8689 453.202 105.754 453.682 114.626C455.841 154.431 419.031 184.119 381.039 177.898C355.931 173.788 339.655 159.073 331.74 135.502C320.946 103.378 338.738 65.5981 371.419 55.928C387.824 51.0715 404.46 52.3243 421.01 53.5598C430.082 54.2377 435.547 61.8656 435.633 70.9866C435.718 79.9445 430.202 86.723 421.147 88.748C419.888 89.0225 418.611 89.1255 416.752 89.3229Z" fill="#01000A"/>
<path d="M291.298 55.1043C300.746 50.5824 309.304 52.7704 316.114 61.1706C318.384 63.9678 318.684 66.8937 318.676 70.1628C318.659 100.048 318.676 129.934 318.667 159.819C318.667 168.425 314.718 174.603 307.514 177.383C299.881 180.326 291.426 178.344 286.055 171.866C279.647 164.135 273.557 156.13 267.303 148.27C261.332 140.762 255.327 133.28 247.952 126.03C247.952 136.798 248.012 147.575 247.917 158.343C247.883 161.93 248.483 165.542 246.435 169.009C242.049 176.439 234.134 180.138 225.731 178.267C217.156 176.362 211.527 169.232 211.399 159.33C211.211 144.28 211.365 129.23 211.365 114.18C211.365 100.846 211.313 87.521 211.356 74.187C211.382 64.2338 215.562 56.889 222.595 54.169C231.307 50.7969 238.289 53.6885 246.273 61.7198C258.017 73.5349 265.401 89.2456 277.146 101.052C278.542 102.451 279.048 102.725 282.063 104.956C282.063 94.4024 282.123 83.9687 282.046 73.5349C281.977 65.967 283.733 58.7252 291.298 55.1043Z" fill="#01000A"/>
<path d="M139.904 114.601C148.993 127.368 151.743 140.642 144.907 154.834C137.625 169.944 124.999 177.272 108.705 178.55C97.8088 179.408 80.9416 177.452 71.4587 171.677C60.9563 165.285 57.7096 154.971 63.1921 145.387C68.3148 136.429 86.6383 133.701 96.6952 139.432C99.505 141.028 102.212 142.101 105.056 141.869C108.26 141.612 109.005 137.21 106.075 135.88C101.227 133.675 96.087 132.74 91.3327 130.955C80.3077 126.811 69.9767 121.774 64.6398 110.422C54.5657 89.0054 63.312 65.804 85.319 56.5973C101.27 49.9218 123.979 52.2814 139.09 60.939C149.259 66.7736 150.381 79.1379 146.552 85.9765C140.872 96.0928 130.678 98.8042 120.218 93.0382C117.229 91.3907 111.258 89.5717 105.784 89.9406C102.512 90.1552 101.844 94.78 104.876 96.0241C117.323 101.147 130.712 103.704 139.904 114.601Z" fill="#01000A"/>
<path d="M195.123 164.487C192.759 171.446 188.904 176.148 181.965 177.89C169.869 180.936 158.51 172.784 158.425 160.24C158.21 130.552 158.245 100.863 158.425 71.1753C158.485 60.6472 167.453 52.3757 177.588 52.7876C188.124 53.2166 195.226 60.7502 195.234 71.6301C195.234 102.391 195.191 133.16 195.123 164.487Z" fill="#01000A"/>
<path d="M176.928 231.543C186.996 231.543 195.157 223.333 195.157 213.206C195.157 203.08 186.996 194.87 176.928 194.87C166.86 194.87 158.699 203.08 158.699 213.206C158.699 223.333 166.86 231.543 176.928 231.543Z" fill="#01000A"/>
</svg>
