<svg width="413" height="190" viewBox="0 0 413 190" fill="none" xmlns="http://www.w3.org/2000/svg">
<path d="M353.418 0.801609C372.414 0.801609 387.041 11.9039 396.704 22.2688C407.659 34.0242 412.883 48.2725 412.827 64.4589C412.75 85.589 412.905 106.726 412.799 127.856C412.729 142.322 408.684 155.489 399.387 166.823C387.582 181.198 372.393 189.295 353.882 189.421C309.009 189.723 175.206 189.604 173.254 189.604C177.495 180.987 177.257 169.885 173.24 160.531C183.317 160.531 327.162 160.7 350.09 160.693C371.002 160.686 385.152 147.821 385.293 126.873C385.426 106.27 385.433 85.6663 385.286 65.0628C385.145 44.4593 370.532 30.197 349.823 30.1619C280.106 30.0285 210.381 30.183 140.67 29.6282C114.512 29.4175 88.3612 29.2209 62.2031 29.1086C46.5082 29.0383 35.2514 36.9314 29.4019 51.5238C28.3064 54.2625 28.1449 57.0363 28.1238 59.7961C27.9342 83.7422 27.4145 107.688 28.3064 131.627C28.812 145.11 42.7864 160.861 58.9026 160.847C76.009 160.826 112.574 160.854 115.601 160.854C111.05 169.464 110.215 181.226 115.58 189.597C108.88 189.597 82.1816 189.709 58.8324 189.709C30.4271 189.709 8.27171 169.267 1.91651 141.655C0.835074 136.95 0.196047 132.386 0.20307 127.632C0.224137 104.739 -0.169117 81.8391 0.33649 58.9534C0.743784 40.5198 9.11439 25.6957 23.3978 14.2072C35.5183 4.45321 49.4154 0.373247 64.8856 0.822675C75.2225 1.12463 329.367 0.801609 353.418 0.801609Z" fill="#01000A"/>
<path d="M341.67 73.307C334.163 73.3211 327.12 73.0331 320.119 73.4123C308.391 74.0443 300.274 82.7029 299.529 94.8093C298.939 104.5 307.184 114.388 317.647 116.213C323.623 117.26 328.875 115.371 334.255 111.094C331.116 110.427 328.777 109.999 326.481 109.43C320.386 107.92 315.624 101.804 315.624 94.374C315.624 86.9795 322.829 80.3012 329.599 80.2029C339.079 80.0625 348.566 80.0695 358.046 80.2029C365.307 80.3012 371.55 86.7547 371.943 94.0158C373.713 126.592 343.538 150.89 312.394 145.798C291.812 142.435 278.469 130.391 271.981 111.101C263.133 84.8096 277.718 53.8903 304.508 45.9762C317.956 42.0015 331.593 43.0268 345.16 44.038C352.597 44.5928 357.077 50.8356 357.147 58.3003C357.218 65.6316 352.695 71.1793 345.273 72.8365C344.24 73.0612 343.194 73.1455 341.67 73.307Z" fill="#01000A"/>
<path d="M238.828 45.302C246.574 41.6013 253.589 43.392 259.172 50.2668C261.033 52.5561 261.279 54.9507 261.272 57.6262C261.258 82.0849 261.272 106.544 261.265 131.002C261.265 138.046 258.027 143.102 252.122 145.377C245.865 147.786 238.934 146.164 234.531 140.862C229.278 134.535 224.285 127.983 219.159 121.55C214.264 115.406 209.342 109.282 203.295 103.348C203.295 112.161 203.345 120.981 203.267 129.794C203.239 132.73 203.731 135.686 202.053 138.523C198.457 144.605 191.968 147.631 185.08 146.1C178.05 144.541 173.437 138.706 173.331 130.602C173.177 118.285 173.303 105.968 173.303 93.6507C173.303 82.738 173.261 71.8323 173.296 60.9196C173.317 52.7738 176.744 46.7627 182.509 44.5366C189.651 41.7768 195.374 44.1433 201.919 50.7162C211.547 60.386 217.6 73.2438 227.228 82.9065C228.372 84.0511 228.786 84.2759 231.258 86.1017C231.258 77.4642 231.307 68.9251 231.244 60.3859C231.188 54.1923 232.628 48.2654 238.828 45.302Z" fill="#01000A"/>
<path d="M114.723 93.9947C122.174 104.444 124.428 115.307 118.824 126.922C112.855 139.289 102.504 145.286 89.1478 146.332C80.2154 147.034 66.3884 145.433 58.6147 140.707C50.0054 135.476 47.3439 127.035 51.8382 119.191C56.0375 111.859 71.0583 109.626 79.3025 114.317C81.6058 115.623 83.8248 116.501 86.1563 116.312C88.7826 116.101 89.3935 112.499 86.9919 111.41C83.0173 109.605 78.8039 108.84 74.9065 107.379C65.8688 103.987 57.3999 99.8654 53.025 90.5749C44.7667 73.0472 51.9365 54.0588 69.9768 46.5239C83.0524 41.0605 101.669 42.9917 114.056 50.0772C122.391 54.8524 123.311 64.9715 120.172 70.5683C115.517 78.8476 107.16 81.0667 98.5857 76.3477C96.135 74.9994 91.2404 73.5106 86.7531 73.8126C84.0706 73.9882 83.5229 77.7732 86.0088 78.7914C96.2122 82.9837 107.188 85.0764 114.723 93.9947Z" fill="#01000A"/>
<path d="M159.989 134.822C158.051 140.518 154.891 144.366 149.202 145.791C139.287 148.284 129.975 141.613 129.905 131.346C129.73 107.049 129.758 82.752 129.905 58.4548C129.954 49.8384 137.307 43.0689 145.614 43.406C154.252 43.7571 160.073 49.9227 160.08 58.827C160.08 84.002 160.045 109.184 159.989 134.822Z" fill="#01000A"/>
<path d="M145.073 189.702C153.326 189.702 160.017 182.983 160.017 174.695C160.017 166.407 153.326 159.688 145.073 159.688C136.82 159.688 130.13 166.407 130.13 174.695C130.13 182.983 136.82 189.702 145.073 189.702Z" fill="#01000A"/>
</svg>
